:SAMPLES-PER-SECOND 30
:FULLY-SPECIFIED
:DEGREES
463
root  -5.81755 40.886 1.18142 173.172 -72.1389 -174.083
RightUpLeg  3.07444 -0.0479959 -1.1784
RightLeg  -2.35555 -5.8158 -0.42731
RightFoot  1.81264 -0.498329 4.42663
RightToes  -3.11842e-008 1.75238e-005 3.56266e-009
Spine  -2.06241 -3.4387 -5.49222
Spine1  0.0774773 -5.34798 11.0276
HEad  6.06405 0.850717 9.07312
LeftShoulder1  1.37362 -2.81642 -14.898
LeftArm  -46.0072 -31.7028 -39.4536
LeftForeArm  136.618 -63.499 -156.852
LeftHand  0.460481 -5.184 -4.7328
RightShoulder  1.3623 2.64243 15.4478
RightArm  -44.4125 26.696 31.3931
RightForeArm  115.972 60.8438 157.526
RightHand  -0.420343 8.20067 -3.96371
LeftUpLeg  8.62845 2.09352 1.84715
LeftLeg  -3.71184 31.0653 -1.80965
LeftFoot  -2.46798 0.252215 -3.05989
LeftToes  4.78904e-008 1.4679e-008 1.35657e-009
464
root  -5.81856 40.8879 1.12524 172.973 -72.608 -173.962
RightUpLeg  3.28513 -0.0535057 -1.10924
RightLeg  -2.42206 -6.29799 -0.391987
RightFoot  1.73578 -0.494223 4.4124
RightToes  -3.11842e-008 1.75238e-005 3.56266e-009
Spine  -2.29273 -3.41364 -5.76386
Spine1  0.784927 -5.39477 11.1422
HEad  5.42131 1.18232 8.32905
LeftShoulder1  1.49049 -2.83417 -16.7428
LeftArm  -42.0388 -24.6048 -41.5637
LeftForeArm  142.176 -58.4741 -161.381
LeftHand  0.945196 -7.85799 -7.8002
RightShoulder  1.44273 2.67558 16.7267
RightArm  -40.2933 22.7712 33.3623
RightForeArm  118.453 57.3666 160.39
RightHand  -0.20762 8.34209 -2.10139
LeftUpLeg  8.60748 2.14832 1.96965
LeftLeg  -3.51217 30.5417 -1.67599
LeftFoot  -2.47966 0.253435 -3.06534
LeftToes  4.78904e-008 1.4679e-008 1.35657e-009
465
root  -5.82446 40.8876 1.07616 172.606 -73.1104 -173.724
RightUpLeg  3.587 -0.0865434 -1.03524
RightLeg  -2.53582 -6.74794 -0.323435
RightFoot  1.7027 -0.478873 4.28763
RightToes  -3.11842e-008 1.75238e-005 3.56266e-009
Spine  -2.41799 -3.29096 -5.5768
Spine1  1.58573 -5.26851 10.6343
HEad  4.35695 1.24144 8.16267
LeftShoulder1  1.85548 -3.64585 -19.4982
LeftArm  -36.3977 -15.2654 -41.1014
LeftForeArm  147.968 -52.1342 -165.417
LeftHand  1.80971 -10.6851 -12.605
RightShoulder  1.66016 3.03745 18.9341
RightArm  -35.7396 16.9248 33.3179
RightForeArm  121.216 53.5061 162.993
RightHand  0.190863 8.41614 1.19186
LeftUpLeg  8.70611 2.25546 2.15856
LeftLeg  -3.40806 29.922 -1.6294
LeftFoot  -2.46894 0.263554 -3.21085
LeftToes  4.78904e-008 1.4679e-008 1.35657e-009
466
root  -5.84059 40.8829 1.03672 172.105 -73.692 -173.34
RightUpLeg  3.90529 -0.201163 -0.993529
RightLeg  -2.63688 -7.22059 -0.177011
RightFoot  1.60256 -0.45919 4.14144
RightToes  -3.11842e-008 1.75238e-005 3.56266e-009
Spine  -3.07579 -3.36591 -5.70148
Spine1  3.60966 -5.49715 10.494
HEad  2.2568 1.87769 8.26243
LeftShoulder1  1.80909 -3.20938 -20.5249
LeftArm  -28.6981 -6.80548 -42.3221
LeftForeArm  157.27 -45.6656 -168.788
LeftHand  2.45809 -12.2554 -15.546
RightShoulder  1.87209 3.32866 21.1286
RightArm  -30.8327 12.6649 32.3944
RightForeArm  128.512 50.6704 164.888
RightHand  0.458759 9.49708 3.16097
LeftUpLeg  8.85596 2.30422 2.30103
LeftLeg  -3.45751 29.3303 -1.59386
LeftFoot  -2.43521 0.254676 -3.05153
LeftToes  4.78904e-008 1.4679e-008 1.35657e-009
467
root  -5.81472 40.8777 1.00525 171.837 -74.1695 -173.244
RightUpLeg  4.06109 -0.400823 -1.06686
RightLeg  -2.4907 -7.45576 -0.0160467
RightFoot  1.45616 -0.439266 4.00409
RightToes  -3.11842e-008 1.75238e-005 3.56266e-009
Spine  -3.43281 -3.24281 -5.57795
Spine1  5.29144 -5.40031 9.83807
HEad  -0.723335 1.97137 7.99208
LeftShoulder1  1.76145 -2.92936 -20.9814
LeftArm  -25.1798 -2.24684 -42.7392
LeftForeArm  164.274 -42.3603 -170.325
LeftHand  2.92133 -14.0786 -16.7669
RightShoulder  1.95856 3.43061 22.0181
RightArm  -27.6537 9.63788 32.6439
RightForeArm  136.234 49.0976 166.065
RightHand  0.683972 10.2259 4.65578
LeftUpLeg  8.89571 2.30287 2.35856
LeftLeg  -3.32817 28.7987 -1.45329
LeftFoot  -2.46364 0.267307 -3.23525
LeftToes  4.78904e-008 1.4679e-008 1.35657e-009
468
root  -5.76798 40.8824 0.97976 171.613 -74.7387 -173.252
RightUpLeg  4.25877 -0.501918 -1.10131
RightLeg  -2.3716 -7.88261 0.00339544
RightFoot  1.41045 -0.442628 4.03807
RightToes  -3.11842e-008 1.75238e-005 3.56266e-009
Spine  -3.58322 -3.06857 -5.37667
Spine1  6.1539 -5.17671 9.26851
HEad  -2.85472 1.79848 7.89537
LeftShoulder1  1.79232 -3.03194 -21.0292
LeftArm  -25.3803 -1.193 -43.8821
LeftForeArm  163.381 -42.1589 -170.318
LeftHand  2.70439 -13.3953 -16.0748
RightShoulder  2.041 3.72008 22.0251
RightArm  -26.8019 8.97899 33.5667
RightForeArm  138.045 48.9933 166.218
RightHand  0.773382 9.98072 5.39757
LeftUpLeg  9.00555 2.34461 2.41463
LeftLeg  -3.28134 28.2217 -1.43265
LeftFoot  -2.33707 0.252122 -2.99156
LeftToes  4.78904e-008 1.4679e-008 1.35657e-009
469
root  -5.71953 40.8915 0.952763 172.024 -75.3271 -173.647
RightUpLeg  4.08414 -0.56125 -1.20453
RightLeg  -2.07606 -8.39822 -0.0525731
RightFoot  1.33488 -0.440116 3.99207
RightToes  -3.11842e-008 1.75238e-005 3.56266e-009
Spine  -3.66104 -2.77978 -5.60729
Spine1  6.16753 -4.86622 9.36025
HEad  -3.41857 1.28545 7.50361
LeftShoulder1  1.71193 -2.78737 -20.807
LeftArm  -27.3705 -3.39473 -44.4808
LeftForeArm  158.864 -44.488 -169.27
LeftHand  2.28305 -12.3324 -14.3515
RightShoulder  1.97445 3.63514 21.3915
RightArm  -27.3497 9.87612 33.8998
RightForeArm  135.336 49.5476 165.805
RightHand  0.666758 9.35378 4.8427
LeftUpLeg  8.82443 2.3095 2.37782
LeftLeg  -3.27578 27.6538 -1.48494
LeftFoot  -2.23049 0.259609 -3.10464
LeftToes  4.78904e-008 1.4679e-008 1.35657e-009
470
root  -5.66623 40.8992 0.926063 171.924 -75.9524 -173.402
RightUpLeg  4.02523 -0.529773 -1.15598
RightLeg  -2.26119 -9.05744 0.0303661
RightFoot  1.44967 -0.433724 3.88603
RightToes  -3.11842e-008 1.75238e-005 3.56266e-009
Spine  -3.33145 -2.593 -5.38414
Spine1  5.06285 -4.52183 9.0419
HEad  -2.22339 0.995687 7.21339
LeftShoulder1  1.84192 -3.32233 -20.5599
LeftArm  -29.4957 -5.72981 -44.1483
LeftForeArm  156.871 -47.2711 -168.134
LeftHand  1.71294 -10.8151 -11.7811
RightShoulder  2.03636 3.88907 21.2679
RightArm  -28.2778 10.9887 33.3245
RightForeArm  134.131 50.85 165.129
RightHand  0.579612 10.0116 3.92808
LeftUpLeg  8.39372 2.30218 2.47259
LeftLeg  -2.98945 27.0489 -1.33299
LeftFoot  -2.18774 0.262139 -3.14296
LeftToes  4.78904e-008 1.4679e-008 1.35657e-009
471
root  -5.61481 40.9075 0.906914 172.166 -76.3875 -173.307
RightUpLeg  3.72738 -0.509435 -1.14459
RightLeg  -2.45401 -9.53743 0.124609
RightFoot  1.59559 -0.431678 3.85157
RightToes  -3.11842e-008 1.75238e-005 3.56266e-009
Spine  -2.81465 -2.38521 -5.16737
Spine1  3.45683 -4.14461 8.839
HEad  -0.114859 1.03209 6.99481
LeftShoulder1  1.95111 -3.75525 -20.4434
LeftArm  -30.3005 -7.95111 -43.6579
LeftForeArm  156.808 -50.0686 -167.002
LeftHand  1.43433 -10.1954 -10.2227
RightShoulder  2.09463 4.15548 21.0485
RightArm  -29.255 12.6959 33.336
RightForeArm  132.286 52.082 164.41
RightHand  0.424224 8.72489 3.09686
LeftUpLeg  7.91342 2.20191 2.48264
LeftLeg  -3.05428 26.6986 -1.32777
LeftFoot  -2.06163 0.264043 -3.17238
LeftToes  4.78904e-008 1.4679e-008 1.35657e-009
472
root  -5.59659 40.9152 0.887393 172.07 -76.9967 -172.991
RightUpLeg  3.72088 -0.534591 -1.13366
RightLeg  -2.81487 -10.15 0.286085
RightFoot  1.73134 -0.425503 3.76112
RightToes  -3.11842e-008 1.75238e-005 3.56266e-009
Spine  -2.9463 -2.34388 -4.98366
Spine1  3.34772 -4.04579 8.59951
HEad  0.263906 1.13999 5.77487
LeftShoulder1  1.79317 -3.33519 -19.7503
LeftArm  -29.0796 -9.61742 -44.7197
LeftForeArm  155.58 -52.4362 -165.851
LeftHand  1.00103 -8.76274 -7.70819
RightShoulder  1.95861 3.82421 20.395
RightArm  -28.9408 13.8656 34.5809
RightForeArm  131.765 53.2134 163.784
RightHand  0.220279 8.95414 1.38753
LeftUpLeg  7.57054 2.14915 2.54163
LeftLeg  -3.03846 26.1568 -1.27826
LeftFoot  -1.93759 0.270722 -3.27542
LeftToes  4.78904e-008 1.4679e-008 1.35657e-009
473
root  -5.56427 40.9213 0.861414 171.719 -77.877 -172.478
RightUpLeg  3.77767 -0.581504 -1.11038
RightLeg  -3.1296 -11.0158 0.457772
RightFoot  1.79802 -0.424929 3.76959
RightToes  -3.11842e-008 1.75238e-005 3.56266e-009
Spine  -3.13447 -2.55139 -5.24181
Spine1  3.50494 -4.30087 8.89228
HEad  0.285014 1.75171 4.36528
LeftShoulder1  1.87375 -3.56415 -20.0553
LeftArm  -27.8477 -10.1376 -44.7986
LeftForeArm  152.229 -54.3545 -164.644
LeftHand  0.43567 -6.18785 -4.09448
RightShoulder  1.98254 3.86313 20.5824
RightArm  -28.8586 14.9433 35.388
RightForeArm  132.138 54.4353 163.137
RightHand  0.15151 9.34184 0.780453
LeftUpLeg  7.11769 2.15704 2.67033
LeftLeg  -2.74046 25.2352 -1.14794
LeftFoot  -1.94925 0.271088 -3.27792
LeftToes  4.78904e-008 1.4679e-008 1.35657e-009
474
root  -5.50231 40.926 0.833899 171.79 -78.7994 -172.315
RightUpLeg  3.58638 -0.639335 -1.15939
RightLeg  -3.21078 -11.9016 0.575633
RightFoot  1.79295 -0.424017 3.78874
RightToes  -3.11842e-008 1.75238e-005 3.56266e-009
Spine  -3.29474 -2.77218 -5.23236
Spine1  3.61444 -4.48803 8.72835
HEad  0.499876 3.05247 2.30608
LeftShoulder1  2.06957 -4.11453 -20.756
LeftArm  -27.4209 -9.73575 -44.8587
LeftForeArm  150.375 -56.2178 -163.47
LeftHand  0.14189 -5.97303 -1.12645
RightShoulder  2.20462 4.4258 21.5355
RightArm  -29.8839 15.8935 35.4389
RightForeArm  132.527 55.2771 162.677
RightHand  0.0389998 8.34824 -0.0324711
LeftUpLeg  6.51607 2.15857 2.73709
LeftLeg  -2.44063 24.2729 -1.08854
LeftFoot  -1.89378 0.259319 -3.08775
LeftToes  4.78904e-008 1.4679e-008 1.35657e-009
